<svg width="240" height="26" viewBox="0 0 240 26" fill="none" xmlns="http://www.w3.org/2000/svg">
<path fill-rule="evenodd" clip-rule="evenodd" d="M13.5 0.5C13.5 0.223858 13.2761 0 13 0C12.7239 0 12.5 0.223858 12.5 0.5V2.5C12.5 2.77614 12.7239 3 13 3C13.2761 3 13.5 2.77614 13.5 2.5V0.5ZM13.5 23.5C13.5 23.2239 13.2761 23 13 23C12.7239 23 12.5 23.2239 12.5 23.5V25.5C12.5 25.7761 12.7239 26 13 26C13.2761 26 13.5 25.7761 13.5 25.5V23.5ZM20 13C20 16.866 16.866 20 13 20C9.13401 20 6 16.866 6 13C6 9.13401 9.13401 6 13 6C16.866 6 20 9.13401 20 13ZM22 13C22 17.9706 17.9706 22 13 22C8.02944 22 4 17.9706 4 13C4 8.02944 8.02944 4 13 4C17.9706 4 22 8.02944 22 13ZM22.1924 3.80761C22.3876 4.00287 22.3876 4.31946 22.1924 4.51472L20.7782 5.92893C20.5829 6.12419 20.2663 6.12419 20.0711 5.92893C19.8758 5.73367 19.8758 5.41709 20.0711 5.22183L21.4853 3.80761C21.6805 3.61235 21.9971 3.61235 22.1924 3.80761ZM5.92893 20.0711C6.12419 20.2663 6.12419 20.5829 5.92893 20.7782L4.51472 22.1924C4.31946 22.3876 4.00287 22.3876 3.80761 22.1924C3.61235 21.9971 3.61235 21.6805 3.80761 21.4853L5.22183 20.0711C5.41709 19.8758 5.73367 19.8758 5.92893 20.0711ZM2.5 13.5C2.77614 13.5 3 13.2761 3 13C3 12.7239 2.77614 12.5 2.5 12.5H0.5C0.223858 12.5 0 12.7239 0 13C0 13.2761 0.223858 13.5 0.5 13.5H2.5ZM25.5 13.5C25.7761 13.5 26 13.2761 26 13C26 12.7239 25.7761 12.5 25.5 12.5H23.5C23.2239 12.5 23 12.7239 23 13C23 13.2761 23.2239 13.5 23.5 13.5H25.5ZM5.92893 5.92893C5.73367 6.12419 5.41709 6.12419 5.22183 5.92893L3.80761 4.51472C3.61235 4.31946 3.61235 4.00287 3.80761 3.80761C4.00287 3.61235 4.31946 3.61235 4.51472 3.80761L5.92893 5.22183C6.1242 5.41709 6.1242 5.73367 5.92893 5.92893ZM22.1924 22.1924C21.9971 22.3876 21.6805 22.3876 21.4853 22.1924L20.0711 20.7782C19.8758 20.5829 19.8758 20.2663 20.0711 20.0711C20.2663 19.8758 20.5829 19.8758 20.7782 20.0711L22.1924 21.4853C22.3877 21.6805 22.3877 21.9971 22.1924 22.1924ZM12.5 14.8107C12.5 14.5879 12.2307 14.4764 12.0732 14.6339L10.1716 16.5355C9.97632 16.7308 9.65974 16.7308 9.46448 16.5355C9.26922 16.3403 9.26922 16.0237 9.46448 15.8284L11.3661 13.9268C11.5236 13.7693 11.4121 13.5 11.1894 13.5H8.5C8.22386 13.5 8 13.2761 8 13C8 12.7239 8.22386 12.5 8.5 12.5H11.1893C11.4121 12.5 11.5236 12.2307 11.3661 12.0732L9.46444 10.1716C9.26918 9.9763 9.26918 9.65972 9.46444 9.46445C9.6597 9.26919 9.97628 9.26919 10.1715 9.46445L12.0732 11.3661C12.2307 11.5236 12.5 11.4121 12.5 11.1894V8.5C12.5 8.22386 12.7239 8 13 8C13.2761 8 13.5 8.22386 13.5 8.5V11.1894C13.5 11.4121 13.7693 11.5236 13.9268 11.3661L15.8284 9.46447C16.0237 9.26921 16.3403 9.26921 16.5355 9.46447C16.7308 9.65973 16.7308 9.97631 16.5355 10.1716L14.6339 12.0732C14.4764 12.2307 14.5879 12.5 14.8107 12.5H17.5C17.7761 12.5 18 12.7239 18 13C18 13.2761 17.7761 13.5 17.5 13.5H14.8106C14.5879 13.5 14.4764 13.7693 14.6339 13.9268L16.5355 15.8284C16.7308 16.0237 16.7308 16.3403 16.5355 16.5355C16.3402 16.7308 16.0237 16.7308 15.8284 16.5355L13.9268 14.6339C13.7693 14.4764 13.5 14.5879 13.5 14.8107V17.5C13.5 17.7761 13.2761 18 13 18C12.7239 18 12.5 17.7761 12.5 17.5V14.8107Z" fill="white"/>
<path d="M36.3934 14.804C40.454 14.804 42.7541 12.7737 42.7541 9.407C42.7541 6.0403 40.454 4.01 36.3934 4.01H29.5572V22H31.8188V14.804H36.3934ZM36.342 6.1431C39.0019 6.1431 40.4026 7.2225 40.4026 9.407C40.4026 11.5915 39.0019 12.6709 36.342 12.6709H31.8188V6.1431H36.342ZM59.3714 19.8797H48.8601V14.0073H58.9088V11.8742H48.8601V6.13025H59.2429V4.01H46.5985V22H59.3714V19.8797ZM79.1798 4.01H76.9182V18.1321L66.0343 3.99715H63.9911V22H66.2527L66.2656 7.87785L77.1367 22.0129H79.1798V4.01ZM97.9952 15.9219C102.403 15.9219 104.754 13.5575 104.754 10.0109C104.754 6.4001 102.403 4.01 97.9567 4.01H90.2467V22H94.5386V15.9219H97.9952ZM97.8924 7.90355C99.4344 7.90355 100.385 8.636 100.385 10.0109C100.385 11.373 99.4344 12.0926 97.8924 12.0926H94.5386V7.90355H97.8924ZM111.454 4.01H107.163V22H111.454V14.9068H119.023V22H123.315V4.01H119.023V10.9361H111.454V4.01ZM130.88 4.01H126.588V22H130.88V4.01ZM147.481 18.0165H138.434V4.01H134.143V22H147.481V18.0165ZM157.487 3.6759C151.936 3.6759 148.004 7.6337 148.004 13.005C148.004 18.3763 151.936 22.3341 157.487 22.3341C163.039 22.3341 166.971 18.3763 166.971 13.005C166.971 7.6337 163.039 3.6759 157.487 3.6759ZM157.487 7.7879C160.417 7.7879 162.499 9.921 162.499 13.005C162.499 16.089 160.417 18.2221 157.487 18.2221C154.558 18.2221 152.476 16.089 152.476 13.005C152.476 9.921 154.558 7.7879 157.487 7.7879ZM182.818 18.0165H173.772V4.01H169.48V22H182.818V18.0165ZM192.825 3.6759C187.274 3.6759 183.342 7.6337 183.342 13.005C183.342 18.3763 187.274 22.3341 192.825 22.3341C198.376 22.3341 202.308 18.3763 202.308 13.005C202.308 7.6337 198.376 3.6759 192.825 3.6759ZM192.825 7.7879C195.755 7.7879 197.836 9.921 197.836 13.005C197.836 16.089 195.755 18.2221 192.825 18.2221C189.895 18.2221 187.813 16.089 187.813 13.005C187.813 9.921 189.895 7.7879 192.825 7.7879ZM213.645 3.6759C208.043 3.6759 204.072 7.54375 204.072 13.005C204.072 18.6204 208.248 22.3213 213.607 22.3213C218.233 22.3213 222.345 18.9417 222.345 13.1849C222.345 12.748 222.319 12.3111 222.255 11.8356H213.62V15.1509H218.002C217.5 17.2712 216.01 18.402 213.453 18.402C210.78 18.402 208.493 16.4616 208.493 13.005C208.493 9.8696 210.561 7.7108 213.44 7.7108C215.11 7.7108 216.382 8.3276 217.282 9.29135L220.34 6.28445C218.773 4.6525 216.498 3.6759 213.645 3.6759ZM239.47 4.01H234.638L230.616 11.1931L226.581 4.01H221.608L228.445 15.0995V22H232.749V15.0738L239.47 4.01Z" fill="white"/>
</svg>
