<svg width="24" height="24" viewBox="0 0 24 24" fill="#101521" xmlns="http://www.w3.org/2000/svg">
<path d="M19 15L19.6708 15.3354C19.7229 15.2313 19.75 15.1164 19.75 15H19ZM19 21V21.75C19.2599 21.75 19.5013 21.6154 19.638 21.3943C19.7746 21.1732 19.7871 20.8971 19.6708 20.6646L19 21ZM19 3H19.75C19.75 2.58579 19.4142 2.25 19 2.25V3ZM8.00013 17.25C7.58592 17.2499 7.25007 17.5857 7.25 17.9999C7.24993 18.4141 7.58566 18.7499 7.99987 18.75L8.00013 17.25ZM8 15.75H19V14.25H8V15.75ZM19 20.25H8V21.75H19V20.25ZM7 3.75H19V2.25H7V3.75ZM7 2.25C5.48122 2.25 4.25 3.48122 4.25 5H5.75C5.75 4.30964 6.30964 3.75 7 3.75V2.25ZM4.25 5V18H5.75V5H4.25ZM18.25 3V15H19.75V3H18.25ZM8 20.25C6.75736 20.25 5.75 19.2426 5.75 18H4.25C4.25 20.0711 5.92893 21.75 8 21.75V20.25ZM5.75 18C5.75 16.7574 6.75736 15.75 8 15.75V14.25C5.92893 14.25 4.25 15.9289 4.25 18H5.75ZM18.2501 17.2518L8.00013 17.25L7.99987 18.75L18.2499 18.7518L18.2501 17.2518ZM19.6708 20.6646C19.2169 19.7568 19.0003 18.8715 19 18.0016L17.5 18.002C17.5003 19.1309 17.7837 20.2444 18.3292 21.3354L19.6708 20.6646ZM19 18.0016C18.9997 17.1306 19.2164 16.2442 19.6708 15.3354L18.3292 14.6646C17.783 15.757 17.4997 16.8718 17.5 18.002L19 18.0016Z" />
</svg>
