<svg width="24" height="24" viewBox="0 0 24 24" fill="white" xmlns="http://www.w3.org/2000/svg">
<path d="M17.5304 9.53033C17.8233 9.23744 17.8233 8.76256 17.5304 8.46967C17.2375 8.17678 16.7626 8.17678 16.4697 8.46967L17.5304 9.53033ZM10 16L9.46971 16.5304C9.76261 16.8232 10.2375 16.8232 10.5304 16.5303L10 16ZM7.53033 12.4697C7.23743 12.1768 6.76256 12.1768 6.46967 12.4697C6.17678 12.7626 6.17678 13.2374 6.46967 13.5303L7.53033 12.4697ZM16.4697 8.46967L9.46971 15.4697L10.5304 16.5303L17.5304 9.53033L16.4697 8.46967ZM6.46967 13.5303L9.46971 16.5304L10.5304 15.4697L7.53033 12.4697L6.46967 13.5303Z" />
</svg>
