<svg width="24" height="24" viewBox="0 0 24 24" fill="#101521" xmlns="http://www.w3.org/2000/svg">
<path d="M20.5304 7.53033C20.8233 7.23744 20.8233 6.76256 20.5304 6.46967C20.2375 6.17678 19.7626 6.17678 19.4697 6.46967L20.5304 7.53033ZM9.0001 18L8.46978 18.5303C8.76267 18.8232 9.23754 18.8232 9.53043 18.5303L9.0001 18ZM4.53032 12.4697C4.23742 12.1768 3.76255 12.1768 3.46966 12.4697C3.17677 12.7626 3.17678 13.2374 3.46968 13.5303L4.53032 12.4697ZM19.4697 6.46967L8.46977 17.4696L9.53043 18.5303L20.5304 7.53033L19.4697 6.46967ZM3.46968 13.5303L8.46978 18.5303L9.53043 17.4696L4.53032 12.4697L3.46968 13.5303Z" />
</svg>
