<svg width="24" height="24" viewBox="0 0 24 24" fill="none" xmlns="http://www.w3.org/2000/svg">
<path d="M7.53033 9.46998C7.23744 9.17708 6.76256 9.17708 6.46967 9.46998C6.17678 9.76287 6.17678 10.2377 6.46967 10.5306L7.53033 9.46998ZM12 15.0003L11.4697 15.5306C11.7626 15.8235 12.2374 15.8235 12.5303 15.5306L12 15.0003ZM17.5303 10.5306C17.8232 10.2377 17.8232 9.76287 17.5303 9.46998C17.2374 9.17708 16.7626 9.17708 16.4697 9.46998L17.5303 10.5306ZM6.46967 10.5306L11.4697 15.5306L12.5303 14.47L7.53033 9.46998L6.46967 10.5306ZM12.5303 15.5306L17.5303 10.5306L16.4697 9.46998L11.4697 14.47L12.5303 15.5306Z" fill="#101521"/>
</svg>
