<svg width="24" height="24" viewBox="0 0 24 24" fill="#101521" xmlns="http://www.w3.org/2000/svg">
<path fill-rule="evenodd" clip-rule="evenodd" d="M4.25 6C4.25 5.58579 4.58579 5.25 5 5.25H15.9375C18.0284 5.25 19.75 6.91443 19.75 9C19.75 11.0856 18.0284 12.75 15.9375 12.75H8.0625C6.77069 12.75 5.75 13.7719 5.75 15C5.75 16.2281 6.77069 17.25 8.0625 17.25H17.1893L15.4697 15.5303C15.1768 15.2374 15.1768 14.7626 15.4697 14.4697C15.7626 14.1768 16.2374 14.1768 16.5303 14.4697L19.5303 17.4697C19.8232 17.7626 19.8232 18.2374 19.5303 18.5303L16.5303 21.5303C16.2374 21.8232 15.7626 21.8232 15.4697 21.5303C15.1768 21.2374 15.1768 20.7626 15.4697 20.4697L17.1893 18.75H8.0625C5.97157 18.75 4.25 17.0856 4.25 15C4.25 12.9144 5.97157 11.25 8.0625 11.25H15.9375C17.2293 11.25 18.25 10.2281 18.25 9C18.25 7.77186 17.2293 6.75 15.9375 6.75H5C4.58579 6.75 4.25 6.41421 4.25 6Z" />
</svg>
