<svg width="24" height="24" viewBox="0 0 24 24" xmlns="http://www.w3.org/2000/svg">
    <path fill-rule="evenodd" clip-rule="evenodd"
        d="M3.25 4C3.25 3.58579 3.58579 3.25 4 3.25H20C20.4142 3.25 20.75 3.58579 20.75 4V16C20.75 16.4142 20.4142 16.75 20 16.75H12.3107L7.53033 21.5303C7.31583 21.7448 6.99324 21.809 6.71299 21.6929C6.43273 21.5768 6.25 21.3033 6.25 21V16.75H4C3.58579 16.75 3.25 16.4142 3.25 16V4ZM4.75 4.75V15.25H7C7.41421 15.25 7.75 15.5858 7.75 16V19.1893L11.4697 15.4697C11.6103 15.329 11.8011 15.25 12 15.25H19.25V4.75H4.75ZM7.25 8C7.25 7.58579 7.58579 7.25 8 7.25H16C16.4142 7.25 16.75 7.58579 16.75 8C16.75 8.41421 16.4142 8.75 16 8.75H8C7.58579 8.75 7.25 8.41421 7.25 8ZM7.25 12C7.25 11.5858 7.58579 11.25 8 11.25H13C13.4142 11.25 13.75 11.5858 13.75 12C13.75 12.4142 13.4142 12.75 13 12.75H8C7.58579 12.75 7.25 12.4142 7.25 12Z" />
</svg>