<svg width="18" height="19" viewBox="0 0 18 19" fill="white" xmlns="http://www.w3.org/2000/svg">
    <path
        d="M17.75 13C17.75 12.5858 17.4142 12.25 17 12.25C16.5858 12.25 16.25 12.5858 16.25 13H17.75ZM17 16H17.75H17ZM15 18V17.25V18ZM3 18V18.75V18ZM1 16H0.25H1ZM1.75 13C1.75 12.5858 1.41421 12.25 1 12.25C0.585787 12.25 0.25 12.5858 0.25 13H1.75ZM5.53033 8.46967C5.23744 8.17678 4.76256 8.17678 4.46967 8.46967C4.17678 8.76256 4.17678 9.23744 4.46967 9.53033L5.53033 8.46967ZM9 13L8.46967 13.5303C8.61032 13.671 8.80109 13.75 9 13.75C9.19891 13.75 9.38968 13.671 9.53033 13.5303L9 13ZM13.5303 9.53033C13.8232 9.23744 13.8232 8.76256 13.5303 8.46967C13.2374 8.17678 12.7626 8.17678 12.4697 8.46967L13.5303 9.53033ZM9.75 1C9.75 0.585786 9.41421 0.25 9 0.25C8.58579 0.25 8.25 0.585786 8.25 1H9.75ZM16.25 13V16H17.75V13H16.25ZM15 17.25H3V18.75H15V17.25ZM1.75 16L1.75 13H0.25L0.25 16H1.75ZM3 17.25C2.30964 17.25 1.75 16.6904 1.75 16H0.25C0.25 17.5188 1.48122 18.75 3 18.75V17.25ZM16.25 16C16.25 16.6904 15.6904 17.25 15 17.25V18.75C16.5188 18.75 17.75 17.5188 17.75 16H16.25ZM4.46967 9.53033L8.46967 13.5303L9.53033 12.4697L5.53033 8.46967L4.46967 9.53033ZM9.53033 13.5303L13.5303 9.53033L12.4697 8.46967L8.46967 12.4697L9.53033 13.5303ZM9.75 13V1H8.25V13H9.75Z"
         />
</svg>