<svg width="24" height="24" viewBox="0 0 24 24" fill="#101521" xmlns="http://www.w3.org/2000/svg">
<path d="M5.63636 7V6.25C5.32098 6.25 5.03929 6.4473 4.93151 6.74369L5.63636 7ZM6.36363 7L7.06848 6.74369C6.9607 6.4473 6.67901 6.25 6.36363 6.25V7ZM8.54545 13L9.2503 12.7437L8.54545 13ZM9.29516 17.2563C9.43671 17.6456 9.86703 17.8464 10.2563 17.7048C10.6456 17.5633 10.8464 17.133 10.7048 16.7437L9.29516 17.2563ZM1.29515 16.7437C1.1536 17.133 1.35442 17.5633 1.74369 17.7048C2.13297 17.8464 2.56329 17.6456 2.70485 17.2563L1.29515 16.7437ZM3.45454 13L2.7497 12.7437L3.45454 13ZM13.6243 5.41562C13.8538 5.07082 13.7604 4.60523 13.4156 4.37569C13.0708 4.14615 12.6052 4.23959 12.3757 4.58438L13.6243 5.41562ZM12.3757 13.4156C12.6052 13.7604 13.0708 13.8538 13.4156 13.6243C13.7604 13.3948 13.8538 12.9292 13.6243 12.5844L12.3757 13.4156ZM21.6243 4.58438C21.3948 4.23959 20.9292 4.14615 20.5844 4.37569C20.2396 4.60523 20.1462 5.07082 20.3757 5.41562L21.6243 4.58438ZM20.3757 12.5844C20.1462 12.9292 20.2396 13.3948 20.5844 13.6243C20.9292 13.8538 21.3948 13.7604 21.6243 13.4156L20.3757 12.5844ZM15.6646 6.32918C15.2941 6.51442 15.1439 6.96493 15.3292 7.33541C15.5144 7.70589 15.9649 7.85606 16.3354 7.67082L15.6646 6.32918ZM17 6.5H17.75C17.75 6.24007 17.6154 5.99867 17.3943 5.86201C17.1732 5.72536 16.8971 5.71293 16.6646 5.82918L17 6.5ZM16.25 11.5C16.25 11.9142 16.5858 12.25 17 12.25C17.4142 12.25 17.75 11.9142 17.75 11.5H16.25ZM5.63636 7.75H6.36363V6.25H5.63636V7.75ZM5.65879 7.25631L7.84061 13.2563L9.2503 12.7437L7.06848 6.74369L5.65879 7.25631ZM7.84061 13.2563L9.29516 17.2563L10.7048 16.7437L9.2503 12.7437L7.84061 13.2563ZM2.70485 17.2563L4.15939 13.2563L2.7497 12.7437L1.29515 16.7437L2.70485 17.2563ZM4.15939 13.2563L6.3412 7.25631L4.93151 6.74369L2.7497 12.7437L4.15939 13.2563ZM8.54545 12.25H3.45454V13.75H8.54545V12.25ZM12.75 9C12.75 7.46345 13.1224 6.16947 13.6243 5.41562L12.3757 4.58438C11.6631 5.65477 11.25 7.26521 11.25 9H12.75ZM13.6243 12.5844C13.1224 11.8305 12.75 10.5366 12.75 9H11.25C11.25 10.7348 11.6631 12.3452 12.3757 13.4156L13.6243 12.5844ZM22.75 9C22.75 7.26522 22.3369 5.65477 21.6243 4.58438L20.3757 5.41562C20.8776 6.16947 21.25 7.46345 21.25 9H22.75ZM21.6243 13.4156C22.3369 12.3452 22.75 10.7348 22.75 9H21.25C21.25 10.5366 20.8776 11.8305 20.3757 12.5844L21.6243 13.4156ZM16.3354 7.67082L17.3354 7.17082L16.6646 5.82918L15.6646 6.32918L16.3354 7.67082ZM16.25 6.5V11.5H17.75V6.5H16.25Z" />
</svg>
