<svg width="24" height="24" viewBox="0 0 24 24" fill="#101521" xmlns="http://www.w3.org/2000/svg">
<path d="M9 4.75C9.41421 4.75 9.75 4.41421 9.75 4C9.75 3.58579 9.41421 3.25 9 3.25V4.75ZM9 20.75C9.41421 20.75 9.75 20.4142 9.75 20C9.75 19.5858 9.41421 19.25 9 19.25V20.75ZM16.5303 7.46967C16.2374 7.17678 15.7626 7.17678 15.4697 7.46967C15.1768 7.76256 15.1768 8.23744 15.4697 8.53033L16.5303 7.46967ZM20 12L20.5303 12.5303C20.671 12.3897 20.75 12.1989 20.75 12C20.75 11.8011 20.671 11.6103 20.5303 11.4697L20 12ZM15.4697 15.4697C15.1768 15.7626 15.1768 16.2374 15.4697 16.5303C15.7626 16.8232 16.2374 16.8232 16.5303 16.5303L15.4697 15.4697ZM8 11.25C7.58579 11.25 7.25 11.5858 7.25 12C7.25 12.4142 7.58579 12.75 8 12.75V11.25ZM9 3.25H6V4.75H9V3.25ZM3.25 6V18H4.75V6H3.25ZM6 20.75H9V19.25H6V20.75ZM3.25 18C3.25 19.5188 4.48122 20.75 6 20.75V19.25C5.30964 19.25 4.75 18.6904 4.75 18H3.25ZM6 3.25C4.48122 3.25 3.25 4.48122 3.25 6H4.75C4.75 5.30964 5.30964 4.75 6 4.75V3.25ZM15.4697 8.53033L19.4697 12.5303L20.5303 11.4697L16.5303 7.46967L15.4697 8.53033ZM19.4697 11.4697L15.4697 15.4697L16.5303 16.5303L20.5303 12.5303L19.4697 11.4697ZM20 11.25L8 11.25V12.75H20V11.25Z" />
</svg>
