<svg width="24" height="24" viewBox="0 0 24 24" fill="#101521" xmlns="http://www.w3.org/2000/svg">
<path d="M8.42907 6.86984C8.76881 6.63287 8.85211 6.16536 8.61514 5.82563C8.37817 5.48589 7.91066 5.40259 7.57093 5.63956L8.42907 6.86984ZM16.4291 5.63956C16.0893 5.40259 15.6218 5.48589 15.3849 5.82563C15.1479 6.16536 15.2312 6.63287 15.5709 6.86984L16.4291 5.63956ZM12.75 4C12.75 3.58579 12.4142 3.25 12 3.25C11.5858 3.25 11.25 3.58579 11.25 4H12.75ZM11.25 12C11.25 12.4142 11.5858 12.75 12 12.75C12.4142 12.75 12.75 12.4142 12.75 12H11.25ZM18.25 12C18.25 15.4518 15.4518 18.25 12 18.25V19.75C16.2802 19.75 19.75 16.2802 19.75 12H18.25ZM12 18.25C8.54822 18.25 5.75 15.4518 5.75 12H4.25C4.25 16.2802 7.71979 19.75 12 19.75V18.25ZM5.75 12C5.75 9.87677 6.80806 8.00053 8.42907 6.86984L7.57093 5.63956C5.56497 7.03876 4.25 9.36576 4.25 12H5.75ZM15.5709 6.86984C17.1919 8.00053 18.25 9.87677 18.25 12H19.75C19.75 9.36576 18.435 7.03876 16.4291 5.63956L15.5709 6.86984ZM11.25 4V12H12.75V4H11.25Z" />
</svg>
