<svg width="24" height="24" viewBox="0 0 24 24" fill="#101521" xmlns="http://www.w3.org/2000/svg">
<path d="M12.75 3C12.75 2.58579 12.4142 2.25 12 2.25C11.5858 2.25 11.25 2.58579 11.25 3H12.75ZM11.25 5C11.25 5.41421 11.5858 5.75 12 5.75C12.4142 5.75 12.75 5.41421 12.75 5H11.25ZM12.75 19C12.75 18.5858 12.4142 18.25 12 18.25C11.5858 18.25 11.25 18.5858 11.25 19H12.75ZM11.25 21C11.25 21.4142 11.5858 21.75 12 21.75C12.4142 21.75 12.75 21.4142 12.75 21H11.25ZM21 12.75C21.4142 12.75 21.75 12.4142 21.75 12C21.75 11.5858 21.4142 11.25 21 11.25V12.75ZM19 11.25C18.5858 11.25 18.25 11.5858 18.25 12C18.25 12.4142 18.5858 12.75 19 12.75V11.25ZM5 12.75C5.41421 12.75 5.75 12.4142 5.75 12C5.75 11.5858 5.41421 11.25 5 11.25V12.75ZM3 11.25C2.58579 11.25 2.25 11.5858 2.25 12C2.25 12.4142 2.58579 12.75 3 12.75V11.25ZM20.1692 8.14952C20.5279 7.94241 20.6509 7.48372 20.4437 7.125C20.2366 6.76628 19.7779 6.64337 19.4192 6.85048L20.1692 8.14952ZM17.6872 7.85048C17.3285 8.05759 17.2056 8.51628 17.4127 8.875C17.6198 9.23372 18.0785 9.35663 18.4372 9.14952L17.6872 7.85048ZM6.31282 16.1495C6.67154 15.9424 6.79445 15.4837 6.58734 15.125C6.38023 14.7663 5.92154 14.6434 5.56282 14.8505L6.31282 16.1495ZM3.83077 15.8505C3.47205 16.0576 3.34914 16.5163 3.55625 16.875C3.76336 17.2337 4.22205 17.3566 4.58077 17.1495L3.83077 15.8505ZM15.8505 20.1692C16.0576 20.5279 16.5163 20.6509 16.875 20.4437C17.2337 20.2366 17.3566 19.7779 17.1495 19.4192L15.8505 20.1692ZM16.1495 17.6872C15.9424 17.3285 15.4837 17.2056 15.125 17.4127C14.7663 17.6198 14.6434 18.0785 14.8505 18.4372L16.1495 17.6872ZM18.4372 14.8505C18.0785 14.6434 17.6198 14.7663 17.4127 15.125C17.2056 15.4837 17.3285 15.9424 17.6872 16.1495L18.4372 14.8505ZM19.4192 17.1495C19.778 17.3566 20.2366 17.2337 20.4438 16.875C20.6509 16.5163 20.528 16.0576 20.1692 15.8505L19.4192 17.1495ZM6.85048 19.4192C6.64338 19.7779 6.76628 20.2366 7.125 20.4437C7.48372 20.6508 7.94241 20.5279 8.14952 20.1692L6.85048 19.4192ZM9.14952 18.4372C9.35663 18.0784 9.23372 17.6197 8.875 17.4126C8.51628 17.2055 8.05759 17.3284 7.85048 17.6872L9.14952 18.4372ZM14.8505 5.5628C14.6434 5.92152 14.7663 6.38021 15.125 6.58732C15.4837 6.79443 15.9424 6.67152 16.1495 6.3128L14.8505 5.5628ZM17.1495 4.58075C17.3566 4.22203 17.2337 3.76334 16.875 3.55623C16.5163 3.34912 16.0576 3.47203 15.8505 3.83075L17.1495 4.58075ZM11.25 3V5H12.75V3H11.25ZM11.25 19V21H12.75V19H11.25ZM21 11.25H19V12.75H21V11.25ZM5 11.25H3V12.75H5V11.25ZM19.4192 6.85048L17.6872 7.85048L18.4372 9.14952L20.1692 8.14952L19.4192 6.85048ZM5.56282 14.8505L3.83077 15.8505L4.58077 17.1495L6.31282 16.1495L5.56282 14.8505ZM17.1495 19.4192L16.1495 17.6872L14.8505 18.4372L15.8505 20.1692L17.1495 19.4192ZM17.6872 16.1495L19.4192 17.1495L20.1692 15.8505L18.4372 14.8505L17.6872 16.1495ZM8.14952 20.1692L9.14952 18.4372L7.85048 17.6872L6.85048 19.4192L8.14952 20.1692ZM16.1495 6.3128L17.1495 4.58075L15.8505 3.83075L14.8505 5.5628L16.1495 6.3128Z" />
</svg>
