<svg width="12" height="12" viewBox="0 0 12 12" fill="none" xmlns="http://www.w3.org/2000/svg">
<path d="M0.46967 10.4697C0.176777 10.7626 0.176777 11.2374 0.46967 11.5303C0.762563 11.8232 1.23744 11.8232 1.53033 11.5303L0.46967 10.4697ZM11.5303 1.53033C11.8232 1.23744 11.8232 0.762563 11.5303 0.46967C11.2374 0.176777 10.7626 0.176777 10.4697 0.46967L11.5303 1.53033ZM4.46967 10.4697C4.17678 10.7626 4.17678 11.2374 4.46967 11.5303C4.76256 11.8232 5.23744 11.8232 5.53033 11.5303L4.46967 10.4697ZM11.5303 5.53033C11.8232 5.23744 11.8232 4.76256 11.5303 4.46967C11.2374 4.17678 10.7626 4.17678 10.4697 4.46967L11.5303 5.53033ZM8.46967 10.4697C8.17678 10.7626 8.17678 11.2374 8.46967 11.5303C8.76256 11.8232 9.23744 11.8232 9.53033 11.5303L8.46967 10.4697ZM11.5303 9.53033C11.8232 9.23744 11.8232 8.76256 11.5303 8.46967C11.2374 8.17678 10.7626 8.17678 10.4697 8.46967L11.5303 9.53033ZM1.53033 11.5303L11.5303 1.53033L10.4697 0.46967L0.46967 10.4697L1.53033 11.5303ZM5.53033 11.5303L11.5303 5.53033L10.4697 4.46967L4.46967 10.4697L5.53033 11.5303ZM9.53033 11.5303L11.5303 9.53033L10.4697 8.46967L8.46967 10.4697L9.53033 11.5303Z" fill="#5D2DEF"/>
</svg>
