<svg width="24" height="24" viewBox="0 0 24 24" fill="#101521" xmlns="http://www.w3.org/2000/svg">
<path d="M2.25 7C2.25 7.41421 2.58579 7.75 3 7.75C3.41421 7.75 3.75 7.41421 3.75 7H2.25ZM20.25 7C20.25 7.41421 20.5858 7.75 21 7.75C21.4142 7.75 21.75 7.41421 21.75 7H20.25ZM12 3L12.6708 2.66459C12.5438 2.4105 12.2841 2.25 12 2.25C11.7159 2.25 11.4562 2.4105 11.3292 2.66459L12 3ZM11.5528 3.89443L10.882 3.55902L10.882 3.55902L11.5528 3.89443ZM12.4472 3.89443L13.118 3.55902V3.55902L12.4472 3.89443ZM21.75 17C21.75 16.5858 21.4142 16.25 21 16.25C20.5858 16.25 20.25 16.5858 20.25 17H21.75ZM3.75 17C3.75 16.5858 3.41421 16.25 3 16.25C2.58579 16.25 2.25 16.5858 2.25 17H3.75ZM12 21L11.3292 21.3354C11.4562 21.5895 11.7159 21.75 12 21.75C12.2841 21.75 12.5438 21.5895 12.6708 21.3354L12 21ZM12.4472 20.1056L13.118 20.441V20.441L12.4472 20.1056ZM11.5528 20.1056L10.882 20.441L10.882 20.441L11.5528 20.1056ZM4 10.75H6V9.25H4V10.75ZM6.25 11V13H7.75V11H6.25ZM6 13.25H4V14.75H6V13.25ZM3.75 13V11H2.25V13H3.75ZM4 13.25C3.86193 13.25 3.75 13.1381 3.75 13H2.25C2.25 13.9665 3.0335 14.75 4 14.75V13.25ZM6.25 13C6.25 13.1381 6.13807 13.25 6 13.25V14.75C6.9665 14.75 7.75 13.9665 7.75 13H6.25ZM6 10.75C6.13807 10.75 6.25 10.8619 6.25 11H7.75C7.75 10.0335 6.9665 9.25 6 9.25V10.75ZM4 9.25C3.0335 9.25 2.25 10.0335 2.25 11H3.75C3.75 10.8619 3.86193 10.75 4 10.75V9.25ZM11 10.75H13V9.25H11V10.75ZM13.25 11V13H14.75V11H13.25ZM13 13.25H11V14.75H13V13.25ZM10.75 13V11H9.25V13H10.75ZM11 13.25C10.8619 13.25 10.75 13.1381 10.75 13H9.25C9.25 13.9665 10.0335 14.75 11 14.75V13.25ZM13.25 13C13.25 13.1381 13.1381 13.25 13 13.25V14.75C13.9665 14.75 14.75 13.9665 14.75 13H13.25ZM13 10.75C13.1381 10.75 13.25 10.8619 13.25 11H14.75C14.75 10.0335 13.9665 9.25 13 9.25V10.75ZM11 9.25C10.0335 9.25 9.25 10.0335 9.25 11H10.75C10.75 10.8619 10.8619 10.75 11 10.75V9.25ZM18 10.75H20V9.25H18V10.75ZM20.25 11V13H21.75V11H20.25ZM20 13.25H18V14.75H20V13.25ZM17.75 13V11H16.25V13H17.75ZM18 13.25C17.8619 13.25 17.75 13.1381 17.75 13H16.25C16.25 13.9665 17.0335 14.75 18 14.75V13.25ZM20.25 13C20.25 13.1381 20.1381 13.25 20 13.25V14.75C20.9665 14.75 21.75 13.9665 21.75 13H20.25ZM20 10.75C20.1381 10.75 20.25 10.8619 20.25 11H21.75C21.75 10.0335 20.9665 9.25 20 9.25V10.75ZM18 9.25C17.0335 9.25 16.25 10.0335 16.25 11H17.75C17.75 10.8619 17.8619 10.75 18 10.75V9.25ZM3.75 7V6H2.25V7H3.75ZM20.25 6V7H21.75V6H20.25ZM4 5.75H9.76393V4.25H4V5.75ZM11.3292 2.66459L10.882 3.55902L12.2236 4.22984L12.6708 3.33541L11.3292 2.66459ZM14.2361 5.75H20V4.25H14.2361V5.75ZM13.118 3.55902L12.6708 2.66459L11.3292 3.33541L11.7764 4.22984L13.118 3.55902ZM9.76393 5.75C10.8056 5.75 11.7578 5.16149 12.2236 4.22984L10.882 3.55902C10.6702 3.9825 10.2374 4.25 9.76393 4.25V5.75ZM21.75 6C21.75 5.0335 20.9665 4.25 20 4.25V5.75C20.1381 5.75 20.25 5.86193 20.25 6H21.75ZM14.2361 4.25C13.7626 4.25 13.3298 3.9825 13.118 3.55902L11.7764 4.22984C12.2422 5.16149 13.1944 5.75 14.2361 5.75V4.25ZM3.75 6C3.75 5.86193 3.86193 5.75 4 5.75V4.25C3.0335 4.25 2.25 5.0335 2.25 6H3.75ZM20.25 17V18H21.75V17H20.25ZM3.75 18V17H2.25V18H3.75ZM20 18.25H14.2361V19.75H20V18.25ZM12.6708 21.3354L13.118 20.441L11.7764 19.7702L11.3292 20.6646L12.6708 21.3354ZM9.76393 18.25H4V19.75H9.76393V18.25ZM10.882 20.441L11.3292 21.3354L12.6708 20.6646L12.2236 19.7702L10.882 20.441ZM14.2361 18.25C13.1944 18.25 12.2422 18.8385 11.7764 19.7702L13.118 20.441C13.3298 20.0175 13.7626 19.75 14.2361 19.75V18.25ZM2.25 18C2.25 18.9665 3.0335 19.75 4 19.75V18.25C3.86193 18.25 3.75 18.1381 3.75 18H2.25ZM9.76393 19.75C10.2374 19.75 10.6702 20.0175 10.882 20.441L12.2236 19.7702C11.7578 18.8385 10.8056 18.25 9.76393 18.25V19.75ZM20.25 18C20.25 18.1381 20.1381 18.25 20 18.25V19.75C20.9665 19.75 21.75 18.9665 21.75 18H20.25Z" />
</svg>
