<svg width="24" height="24" viewBox="0 0 24 24" fill="#101521" xmlns="http://www.w3.org/2000/svg">
<path fill-rule="evenodd" clip-rule="evenodd" d="M8.25 4C8.25 3.0335 9.0335 2.25 10 2.25H14C14.9665 2.25 15.75 3.0335 15.75 4V8C15.75 8.9665 14.9665 9.75 14 9.75H12.75V12.25H18C18.9665 12.25 19.75 13.0335 19.75 14V16.25H20C20.9665 16.25 21.75 17.0335 21.75 18V20C21.75 20.9665 20.9665 21.75 20 21.75H18C17.0335 21.75 16.25 20.9665 16.25 20V18C16.25 17.0335 17.0335 16.25 18 16.25H18.25V14C18.25 13.8619 18.1381 13.75 18 13.75H12.75V16.25H13C13.9665 16.25 14.75 17.0335 14.75 18V20C14.75 20.9665 13.9665 21.75 13 21.75H11C10.0335 21.75 9.25 20.9665 9.25 20V18C9.25 17.0335 10.0335 16.25 11 16.25H11.25V13.75H6C5.86193 13.75 5.75 13.8619 5.75 14V16.25H6C6.9665 16.25 7.75 17.0335 7.75 18V20C7.75 20.9665 6.9665 21.75 6 21.75H4C3.0335 21.75 2.25 20.9665 2.25 20V18C2.25 17.0335 3.0335 16.25 4 16.25H4.25V14C4.25 13.0335 5.0335 12.25 6 12.25H11.25V9.75H10C9.0335 9.75 8.25 8.9665 8.25 8V4ZM10 3.75C9.86193 3.75 9.75 3.86193 9.75 4V8C9.75 8.13807 9.86193 8.25 10 8.25H14C14.1381 8.25 14.25 8.13807 14.25 8V4C14.25 3.86193 14.1381 3.75 14 3.75H10ZM4 17.75C3.86193 17.75 3.75 17.8619 3.75 18V20C3.75 20.1381 3.86193 20.25 4 20.25H6C6.13807 20.25 6.25 20.1381 6.25 20V18C6.25 17.8619 6.13807 17.75 6 17.75H4ZM11 17.75C10.8619 17.75 10.75 17.8619 10.75 18V20C10.75 20.1381 10.8619 20.25 11 20.25H13C13.1381 20.25 13.25 20.1381 13.25 20V18C13.25 17.8619 13.1381 17.75 13 17.75H11ZM18 17.75C17.8619 17.75 17.75 17.8619 17.75 18V20C17.75 20.1381 17.8619 20.25 18 20.25H20C20.1381 20.25 20.25 20.1381 20.25 20V18C20.25 17.8619 20.1381 17.75 20 17.75H18Z" />
</svg>
